/* XPM */
static char * pink_xpm[] = {
"64 64 41 1",
" 	c None",
".	c #FFB9DF",
"+	c #FDBCDF",
"@	c #FFBADF",
"#	c #FEBBDF",
"$	c #F5C7DF",
"%	c #DFDFDF",
"&	c #F9C2DF",
"*	c #E8D6DF",
"=	c #E6D8DF",
"-	c #E4DADF",
";	c #E5D9DF",
">	c #F4C8DF",
",	c #E1DDDF",
"'	c #E0DEDF",
")	c #F1CCDF",
"!	c #A0A0DF",
"~	c #A5A5DF",
"{	c #FEB9DF",
"]	c #A2A0DF",
"^	c #C1C1DF",
"/	c #1B1BDF",
"(	c #4242DF",
"_	c #FEB8DF",
":	c #2922DF",
"<	c #6F51DF",
"[	c #AB7CDF",
"}	c #AC7DDF",
"|	c #2824DF",
"1	c #2626DF",
"2	c #4747DF",
"3	c #3329DF",
"4	c #2725DF",
"5	c #A1A1DF",
"6	c #F4C6DF",
"7	c #DEDEDF",
"8	c #E7D5DF",
"9	c #FCBDDF",
"0	c #F7C4DF",
"a	c #FDBBDF",
"b	c #F9C1DF",
"                                                                ",
"                                                                ",
"                        ................                        ",
"                       ..................                       ",
"                       ..................                       ",
"                       ..................                       ",
"               ..................................               ",
"               ..................................               ",
"               ..................................               ",
"               ..................................               ",
"               ..................................               ",
"           ..........................................           ",
"           ..........................................           ",
"           ..........................................           ",
"           ++++++++@................#+++++++#........           ",
"      ....$%%%%%%%%&................*%%%%%%%=.............      ",
"      ....$%%%%%%%%&................*%%%%%%%=.............      ",
"      ....$%%%%%%%%&................*%%%%%%%=.............      ",
"      ....$%%%%%%%%&................*%%%%%%%=.............      ",
"      ====-%%%%%%%%;===>........====,%%%%%%%'====#........      ",
"      %%%%%%%%%%%%%%%%%)........%%%%%%%%%%%%%%%%%+........      ",
"      %%%%%%%%%%%%%%%%%)........%%%%%%%%%%%%%%%%%+........      ",
"      %%%%%%%%%%%%%%%%%)........%%%%%%%%%%%%%%%%%+........      ",
"      !!!!!!!!~%%%%%%%%).......{]!!!!!!!^%%%%%%%%+........      ",
"      ////////(%%%%%%%%)......._:///////!%%%%%%%%+........      ",
"      ////////(%%%%%%%%)......._:///////!%%%%%%%%+........      ",
"      ////////(%%%%%%%%)......._:///////!%%%%%%%%+........      ",
"      <///////(%%%%%%%%)......._:///////!%%%%%%%%+........      ",
"  ....[///////(%%%%%%%%)......._:///////!%%%%%%%%+............  ",
"  ....[///////(%%%%%%%%)......._:///////!%%%%%%%%+............  ",
"  ....[///////(%%%%%%%%)......._:///////!%%%%%%%%+............  ",
"  ....}:::|1112%%%%%%%%)......._3:::41115%%%%%%%%+............  ",
"  ....____67777%%%%&............____87777%%%=.................  ",
"  ........$%%%%%%%%&................*%%%%%%%=.................  ",
"  ........$%%%%%%%%&................*%%%%%%%=.................  ",
"  ........$%%%%%%%%&................*%%%%%%%=.................  ",
"  ........900000000a................b0000000&.................  ",
"  ............................................................  ",
"  ............................................................  ",
"  ............................................................  ",
"  ............................................................  ",
"  ............................................................  ",
"  ............................................................  ",
"  ............................................................  ",
"  ............................................................  ",
"  ............................................................  ",
"  ............................................................  ",
"  ............................................................  ",
"  ............................................................  ",
"  ............................................................  ",
"  ............................................................  ",
"  ............................................................  ",
"  ............................................................  ",
"  .........    .............        .............    .........  ",
"  .........    .............        .............    .........  ",
"  .........    .............        .............    .........  ",
"  .........    .............        .............    .........  ",
"  ........     .............        .............     ........  ",
"  ....             .........        .........             ....  ",
"  ....             .........        .........             ....  ",
"  ....             .........        .........             ....  ",
"  ....             .........        .........             ....  ",
"                                                                ",
"                                                                "};
