/* XPM */
static char * red_xpm[] = {
"64 64 52 1",
" 	c None",
".	c #FF0000",
"+	c #FD3B3B",
"@	c #FF1818",
"#	c #FE3232",
"$	c #FE3535",
"%	c #F58888",
"&	c #DFDFDF",
"*	c #F96C6C",
"=	c #E8C3C3",
"-	c #E6CACA",
";	c #E8C2C2",
">	c #E4D1D1",
",	c #E5CECE",
"'	c #F48F8F",
")	c #FF1313",
"!	c #E6C9C9",
"~	c #E1DADA",
"{	c #E0DBDB",
"]	c #F19F9F",
"^	c #FF1717",
"/	c #DFDEDE",
"(	c #A0A0DF",
"_	c #A5A5DF",
":	c #FE0D17",
"<	c #A29FDE",
"[	c #C1C1DF",
"}	c #1B1BDF",
"|	c #4242DF",
"1	c #FE0017",
"2	c #291BDE",
"3	c #6F18CF",
"4	c #AB13B1",
"5	c #AC13B1",
"6	c #281FDE",
"7	c #2626DF",
"8	c #4747DF",
"9	c #F19E9E",
"0	c #331BDD",
"a	c #2723DF",
"b	c #A1A1DF",
"c	c #FE0010",
"d	c #F48789",
"e	c #DEDEDF",
"f	c #F96E6E",
"g	c #FF0D0D",
"h	c #E7C2C3",
"i	c #FF0202",
"j	c #FC4848",
"k	c #F77A7A",
"l	c #FD3838",
"m	c #F96A6A",
"                                                                ",
"                                                                ",
"                        ................                        ",
"                       ..................                       ",
"                       ..................                       ",
"                       ..................                       ",
"               ..................................               ",
"               ..................................               ",
"               ..................................               ",
"               ..................................               ",
"               ..................................               ",
"           ..........................................           ",
"           ..........................................           ",
"           ..........................................           ",
"           ++++++++@................#+++++++$........           ",
"      ....%&&&&&&&&*................=&&&&&&&-.............      ",
"      ....%&&&&&&&&*................;&&&&&&&-.............      ",
"      ....%&&&&&&&&*................;&&&&&&&-.............      ",
"      ....%&&&&&&&&*................;&&&&&&&-.............      ",
"      ---->&&&&&&&&,---'.......)!---~&&&&&&&{----$........      ",
"      &&&&&&&&&&&&&&&&&].......^/&&&&&&&&&&&&&&&&+........      ",
"      &&&&&&&&&&&&&&&&&].......^/&&&&&&&&&&&&&&&&+........      ",
"      &&&&&&&&&&&&&&&&&].......^/&&&&&&&&&&&&&&&&+........      ",
"      ((((((((_&&&&&&&&].......:<((((((([&&&&&&&&+........      ",
"      }}}}}}}}|&&&&&&&&].......12}}}}}}}(&&&&&&&&+........      ",
"      }}}}}}}}|&&&&&&&&].......12}}}}}}}(&&&&&&&&+........      ",
"      }}}}}}}}|&&&&&&&&].......12}}}}}}}(&&&&&&&&+........      ",
"      3}}}}}}}|&&&&&&&&].......12}}}}}}}(&&&&&&&&+........      ",
"  ....4}}}}}}}|&&&&&&&&].......12}}}}}}}(&&&&&&&&+............  ",
"  ....4}}}}}}}|&&&&&&&&].......12}}}}}}}(&&&&&&&&+............  ",
"  ....4}}}}}}}|&&&&&&&&].......12}}}}}}}(&&&&&&&&+............  ",
"  ....522267778&&&&////9.......10222a777b&&&&////+............  ",
"  ....c111deeee&&&&f^^^g........1111heeee&&&-^^^^i............  ",
"  ........%&&&&&&&&*................;&&&&&&&-.................  ",
"  ........%&&&&&&&&*................;&&&&&&&-.................  ",
"  ........%&&&&&&&&*................;&&&&&&&-.................  ",
"  ........jkkkkkkkkl................mkkkkkkkf.................  ",
"  ............................................................  ",
"  ............................................................  ",
"  ............................................................  ",
"  ............................................................  ",
"  ............................................................  ",
"  ............................................................  ",
"  ............................................................  ",
"  ............................................................  ",
"  ............................................................  ",
"  ............................................................  ",
"  ............................................................  ",
"  ............................................................  ",
"  ............................................................  ",
"  ............................................................  ",
"  ............................................................  ",
"  ............................................................  ",
"  .........    .............        .............    .........  ",
"  .........    .............        .............    .........  ",
"  .........    .............        .............    .........  ",
"  .........    .............        .............    .........  ",
"  ........     .............        .............     ........  ",
"  ....             .........        .........             ....  ",
"  ....             .........        .........             ....  ",
"  ....             .........        .........             ....  ",
"  ....             .........        .........             ....  ",
"                                                                ",
"                                                                "};
