/* XPM */
static char * button_xpm[] = {
"64 64 21 1",
" 	c None",
".	c #EFEFEF",
"+	c #F0F0F0",
"@	c #EEEEEE",
"#	c #F1F1F1",
"$	c #F4F4F4",
"%	c #F6F6F6",
"&	c #F7F7F7",
"*	c #F2F2F2",
"=	c #F3F3F3",
"-	c #F5F5F5",
";	c #F9F9F9",
">	c #FBFBFB",
",	c #FAFAFA",
"'	c #F8F8F8",
")	c #FDFDFD",
"!	c #FCFCFC",
"~	c #EDEDED",
"{	c #ECECEC",
"]	c #EBEBEB",
"^	c #FEFEFE",
"                                                                ",
"                                                                ",
"                                                                ",
"                                                                ",
"                                                                ",
"                                                                ",
"                                                                ",
"                                                                ",
"                                                                ",
"                                                                ",
"                                                                ",
"                                                                ",
"                                                                ",
"                             .+++++                             ",
"                         @#$%&&&&&&%$*+                         ",
"                       +=-&;>>>>>,,;&%$*+                       ",
"                      *$'>)))!!!!>>>,,'%=#.                     ",
"                    +=&>!))!!!!>>>,,,;;'&-*+                    ",
"                   +$;!!!!!!>>>,,,,;;''''&-*+                   ",
"                  +$'>!>>>>>,,,,;;;'''&&&%-$*+                  ",
"                 .='>>>>>,,,,,,,;;;''&&&%%-$=+@                 ",
"                 #&,>>,,,,,,,;;;;;''&&%%%--$=#.@                ",
"                +$;,,;;;;;;;;;'''''&&%%%-$$==*+@                ",
"               .*&;;;;;;;;'''''''&&&%%%--$==*#+@@               ",
"               +$'''''''''''''''&&&%%%--$==*##+@~               ",
"              ~#%&''''''''''''''&&&%%--$$==*#+.@{{              ",
"              @*%&&&&&&''''''''&&&&%%-$$$=*##+.@{{              ",
"              +=%%%&&&&&&&&&''&&&&%%%-$$$**##+@~{{~             ",
"              #=--%%%%%&&&&&&&&&&&%--$$==*##+.~~{]{             ",
"             @#=----%%%%&&&&&&&%%%--$$===*#++.~~{{{             ",
"             @#=$----%%%%&&&&&&%%%--$$$==*#++.~~{{~             ",
"             @+*=$$---%%%%&&'&&%%%%%--$$=*##+.@~~~@             ",
"             @@+*=$$$--%%%&&''&&&&%%%--$$=*#++@@~~~             ",
"             @~@+*=$$$-%%%&&''''''&&&%--$=*##+.@~~@             ",
"             @@@@+#=$$-%%%&&'''''''&&&%--$=*#+..@@@             ",
"             @@@..+*=$-%%%&'';;;;;;''&&%-$==*#..@@@             ",
"              @@.+#*=$-%%%&';;;,,,,;'&&&%-$=*#+..@@             ",
"              @@.+#*=$-%%&';,,,,,,,,;''&%-$=**++.@.             ",
"              ..++#==$%%&';,,,>>>>,,,;''&%-$=*#+.@              ",
"               ++#*=$-%&&';,,>>>>>>,,;;'&%-$=*#+..              ",
"               ++#*=$-%&';;,>>>>>>>>,;;;'%--$=#++               ",
"                #**=$-&'';,,>>>!!!>>>,;;'&%-$=##+               ",
"                ##*=$-&';;,>>>!!!!!>>,,;'&%-$=*#                ",
"                 #*=$-&';;,>>!!)))!>>,,,;&%-$=*                 ",
"                  =$$-&';;,>!!!))))!>>,,;&%-$=                  ",
"                   =$-&;;;,>!!)))))!!>,,;'%-$=                  ",
"                    $%';;;,>!!)^^))!!>,,;&%$*                   ",
"                     $&&;,,>!!)))))!>>,,'%$                     ",
"                       -&;,>!!!))))!>,;'&-                      ",
"                        $%';,>>!!!>,;'&%                        ",
"                          =-&'';;;;&--                          ",
"                                                                ",
"                                                                ",
"                                                                ",
"                                                                ",
"                                                                ",
"                                                                ",
"                                                                ",
"                                                                ",
"                                                                ",
"                                                                ",
"                                                                ",
"                                                                ",
"                                                                "};
