/* XPM */
static char * exit_xpm[] = {
"64 64 194 2",
"  	c #040404",
". 	c #010101",
"+ 	c #000000",
"@ 	c #020202",
"# 	c #050505",
"$ 	c #030003",
"% 	c #0D500F",
"& 	c #0C500E",
"* 	c #0F5111",
"= 	c #135114",
"- 	c #2FCB34",
"; 	c #32CC36",
"> 	c #36CC3B",
", 	c #36E23B",
"' 	c #35E23A",
") 	c #38E23D",
"! 	c #3DE342",
"~ 	c #35E03A",
"{ 	c #38E03D",
"] 	c #3DE142",
"^ 	c #35DF3A",
"/ 	c #34DE39",
"( 	c #34DD39",
"_ 	c #35DE39",
": 	c #35DE3A",
"< 	c #35E13A",
"[ 	c #32D737",
"} 	c #2AB92E",
"| 	c #219724",
"1 	c #1D8B20",
"2 	c #1D8920",
"3 	c #239F26",
"4 	c #2DC632",
"5 	c #33DA38",
"6 	c #2CBF30",
"7 	c #24A227",
"8 	c #28B02C",
"9 	c #24A328",
"0 	c #27AE2B",
"a 	c #32D436",
"b 	c #34DC39",
"c 	c #2DC331",
"d 	c #28B32D",
"e 	c #31D035",
"f 	c #219925",
"g 	c #1D8C20",
"h 	c #1E8D21",
"i 	c #29B42C",
"j 	c #31D135",
"k 	c #229B25",
"l 	c #0B4A0C",
"m 	c #177519",
"n 	c #209624",
"o 	c #209523",
"p 	c #209423",
"q 	c #24A628",
"r 	c #2EC833",
"s 	c #33DB38",
"t 	c #1B841E",
"u 	c #17761A",
"v 	c #2CC231",
"w 	c #34DB39",
"x 	c #239F27",
"y 	c #167118",
"z 	c #23A026",
"A 	c #32D537",
"B 	c #27AF2B",
"C 	c #136615",
"D 	c #1E8F22",
"E 	c #23A127",
"F 	c #1F9423",
"G 	c #1F9323",
"H 	c #1A831E",
"I 	c #063908",
"J 	c #105C12",
"K 	c #1C861F",
"L 	c #2AB82E",
"M 	c #33D837",
"N 	c #229D25",
"O 	c #105B12",
"P 	c #29B42D",
"Q 	c #27B02B",
"R 	c #157018",
"S 	c #30CD34",
"T 	c #33D938",
"U 	c #2BBB2F",
"V 	c #146C17",
"W 	c #1F9222",
"X 	c #2EC732",
"Y 	c #34DB38",
"Z 	c #28B02B",
"` 	c #146A16",
" .	c #1F9122",
"..	c #126515",
"+.	c #29B52D",
"@.	c #239E26",
"#.	c #126415",
"$.	c #28B12C",
"%.	c #32D637",
"&.	c #2EC632",
"*.	c #1B861F",
"=.	c #2BBD2F",
"-.	c #2DC732",
";.	c #126615",
">.	c #1F9223",
",.	c #30CC34",
"'.	c #2DC532",
").	c #197C1C",
"!.	c #1A7F1C",
"~.	c #25A829",
"{.	c #23A027",
"].	c #136715",
"^.	c #29B62D",
"/.	c #36E43B",
"(.	c #33D838",
"_.	c #28B22C",
":.	c #156E17",
"<.	c #126214",
"[.	c #17771A",
"}.	c #1E8E21",
"|.	c #30CE34",
"1.	c #0E5510",
"2.	c #2ABB2F",
"3.	c #2DC432",
"4.	c #31D336",
"5.	c #1A821E",
"6.	c #011201",
"7.	c #136916",
"8.	c #229C25",
"9.	c #0C4C0D",
"0.	c #136816",
"a.	c #1D8C21",
"b.	c #073C09",
"c.	c #2CC130",
"d.	c #0F5811",
"e.	c #31D236",
"f.	c #30D035",
"g.	c #146B17",
"h.	c #0E5610",
"i.	c #1E9022",
"j.	c #31D235",
"k.	c #36E33B",
"l.	c #197B1C",
"m.	c #26A929",
"n.	c #229C26",
"o.	c #27B12C",
"p.	c #2FCC34",
"q.	c #32D437",
"r.	c #2CC131",
"s.	c #1A801D",
"t.	c #1A811D",
"u.	c #2CC030",
"v.	c #26AC2A",
"w.	c #209824",
"x.	c #35E13B",
"y.	c #229E26",
"z.	c #30CE35",
"A.	c #0F5911",
"B.	c #27AD2B",
"C.	c #2ABA2F",
"D.	c #1A821D",
"E.	c #197D1C",
"F.	c #2EC933",
"G.	c #31D136",
"H.	c #167219",
"I.	c #27AB2B",
"J.	c #229D26",
"K.	c #0D500E",
"L.	c #0F5B12",
"M.	c #177419",
"N.	c #167319",
"O.	c #167119",
"P.	c #1D8A20",
"Q.	c #2FC833",
"R.	c #1F9022",
"S.	c #18781B",
"T.	c #2DC431",
"U.	c #197E1C",
"V.	c #1B831E",
"W.	c #2DC231",
"X.	c #209323",
"Y.	c #27AD2A",
"Z.	c #2CBE30",
"`.	c #34DA38",
" +	c #2ABA2E",
".+	c #38E13D",
"++	c #3DE242",
"@+	c #32D536",
"#+	c #35D539",
"$+	c #39D63E",
"%+	c #146B16",
"&+	c #166B19",
"*+	c #1A6B1C",
"=+	c #020002",
"  . + + + + + + + + + + + + + + + + + + + + + + + + + + + + + + + + + + + + + + + + + + + + + + + + + + + + + + + + + + + + @ # ",
". + + + + + + + + + + + + + + + + + + + + + + + + + + + + + + + + + + + + + + + + + + + + + + + + + + + + + + + + + + + + + @ # ",
"+ + + + + + + + + + + + + + + + + + + + + + + + + + + + + + + + + + + + + + + + + + + + + + + + + + + + + + + + + + + + + + @ # ",
"+ + + + + + + + + + + + + + + + + + + + + + + + + + + + + + + + + + + + + + + + + + + + + + + + + + + + + + + + + + + + + + @ # ",
"+ + + + + + + + + + + + + + + + + + + + + + + + + + + + + + + + + + + + + + + + + + + + + + + + + + + + + + + + + + + + + + @ # ",
"+ + + + + + + + + + + + + + + + + + + + + + + + + + + + + + + + + + + + + + + + + + + + + + + + + + + + + + + + + + + + + + @ # ",
"+ + + + + + + + + + + + + + + + + + + + + + + + + + + + + + + + + + + + + + + + + + + + + + + + + + + + + + + + + + + + + + @ # ",
"+ + + + + + + + + + + + + + + + + + + + + + + + + + + + + + + + + + + + + + + + + + + + + + + + + + + + + + + + + + + + + + @ # ",
"+ + + + + + + + + + + + + + + + + + + + + + + + + + + + + + + + + + + + + + + + + + + + + + + + + + + + + + + + + + + + + + @ # ",
"+ + + + + + + + + + + + + + + + + + + + + + + + + + + + + + + + + + + + + + + + + + + + + + + + + + + + + + + + + + + + + + @ # ",
"+ + + + + + + + + + + + + + + + + + + + + + + + + + + + + + + + + + + + + + + + + + + + + + + + + + + + + + + + + + + + + + @ # ",
"+ + + + + + + + + + + + + + + + + + + + + + + + + + + + + + + + + + + + + + + + + + + + + + + + + + + + + + + + + + + + + + @ # ",
"+ + + + + + + + + + + + + + + + + + + + + + + + + + + + + + + + + + + + + + + + + + + + + + + + + + + + + + + + + + + + + + + $ ",
"% % % % % % % % % % % % % % % % % % % % % % % % % % % % % % % % % % % % % % % % % % % % % % % % % % % % % % % % % % % % % & * = ",
"- - - - - - - - - - - - - - - - - - - - - - - - - - - - - - - - - - - - - - - - - - - - - - - - - - - - - - - - - - - - - - ; > ",
", , , , , , , , , , , , , , , , , , , , , , , , , , , , , , , , , , , , , , , , , , , , , , , , , , , , , , , , , , , , , ' ) ! ",
"~ ~ ~ ~ ~ ~ ~ ~ ~ ~ ~ ~ ~ ~ ~ ~ ~ ~ ~ ~ ~ ~ ~ ~ ~ ~ ~ ~ ~ ~ ~ ~ ~ ~ ~ ~ ~ ~ ~ ~ ~ ~ ~ ~ ~ ~ ~ ~ ~ ~ ~ ~ ~ ~ ~ ~ ~ ~ ~ ~ ~ ~ { ] ",
"~ ~ ~ ~ ~ ~ ~ ~ ~ ~ ~ ~ ~ ~ ~ ~ ~ ~ ~ ~ ~ ~ ~ ~ ~ ~ ~ ~ ~ ~ ~ ~ ~ ~ ~ ~ ~ ~ ~ ~ ~ ~ ~ ~ ~ ~ ~ ~ ~ ~ ~ ~ ~ ~ ~ ~ ~ ~ ~ ~ ~ ~ { ] ",
"~ ~ ~ ~ ~ ~ ~ ~ ~ ~ ~ ~ ~ ~ ~ ~ ~ ~ ~ ~ ~ ~ ~ ~ ~ ~ ~ ~ ~ ~ ~ ~ ~ ~ ~ ~ ~ ~ ~ ~ ~ ~ ~ ~ ~ ~ ~ ~ ~ ~ ~ ~ ~ ~ ~ ~ ~ ~ ~ ~ ~ ~ { ] ",
"~ ~ ~ ~ ~ ~ ~ ~ ~ ~ ~ ~ ~ ~ ~ ~ ~ ~ ~ ~ ~ ~ ~ ~ ~ ~ ~ ~ ~ ~ ~ ~ ~ ~ ~ ~ ~ ~ ~ ~ ~ ~ ~ ~ ~ ~ ~ ~ ~ ~ ~ ~ ~ ~ ~ ~ ~ ~ ~ ~ ~ ~ { ] ",
"~ ~ ~ ~ ~ ~ ~ ~ ~ ~ ~ ~ ~ ~ ~ ~ ~ ~ ~ ~ ~ ~ ~ ~ ~ ~ ~ ~ ~ ~ ~ ~ ~ ~ ~ ~ ~ ~ ~ ~ ~ ~ ~ ~ ~ ~ ~ ~ ~ ~ ~ ~ ~ ~ ~ ~ ~ ~ ~ ~ ~ ~ { ] ",
"~ ~ ~ ~ ~ ~ ~ ~ ~ ~ ~ ~ ~ ~ ~ ~ ~ ~ ~ ~ ~ ~ ~ ~ ~ ~ ~ ~ ~ ~ ~ ~ ~ ~ ~ ~ ~ ~ ~ ~ ~ ~ ~ ~ ~ ~ ~ ~ ~ ~ ~ ~ ~ ~ ~ ~ ~ ~ ~ ~ ~ ~ { ] ",
"~ ~ ~ ~ ~ ~ ~ ~ ~ ~ ~ ~ ~ ~ ~ ~ ~ ~ ~ ~ ~ ~ ~ ~ ~ ~ ~ ~ ~ ~ ~ ~ ~ ~ ~ ~ ~ ~ ~ ~ ~ ~ ~ ~ ~ ~ ~ ~ ~ ~ ~ ~ ~ ~ ~ ~ ~ ~ ~ ~ ~ ~ { ] ",
"~ ~ ~ ~ ~ ~ ~ ~ ~ ~ ~ ~ ~ ^ / ( ( ( ( ( ( / ^ ~ ^ / _ ~ ~ ~ ~ ~ ^ / / ~ ~ ^ / : ^ / ( ( ( ( ( ( ( ( ( ( : ~ ~ ~ ~ ~ ~ ~ ~ ~ { ] ",
"~ ~ ~ ~ ~ ~ ~ ~ ~ ~ ~ < [ } | 1 1 1 1 1 2 3 4 5 6 7 8 5 ~ ~ ~ ( - 9 0 a b c 7 d e f 2 1 1 g h h g 1 1 1 i [ ^ ~ ~ ~ ~ ~ ~ ~ { ] ",
"~ ~ ~ ~ ~ ~ ~ ~ ~ ~ ~ < j k l m n o o o p q r s 6 t u v w < ~ a x y z A 5 B C D e E F o G H I J K o o o L M ^ ~ ~ ~ ~ ~ ~ ~ { ] ",
"~ ~ ~ ~ ~ ~ ~ ~ ~ ~ ~ < j N O P < ^ ^ ^ ^ ^ ~ ~ 5 Q R p S ~ T U V W X ~ Y Z `  .( ^ ^ ^ b 4 .. .- : ^ ^ ^ ~ ~ ~ ~ ~ ~ ~ ~ ~ { ] ",
"~ ~ ~ ~ ~ ~ ~ ~ ~ ~ ~ < j N O +.' ~ ~ ~ ~ ~ ~ ~ ~ S @.#.$.%.&.*.u =.( ~ Y Z `  .( ~ ~ ~ ( -.;.>.,.^ ~ ~ ~ ~ ~ ~ ~ ~ ~ ~ ~ ~ { ] ",
"~ ~ ~ ~ ~ ~ ~ ~ ~ ~ ~ < j N O +.' ~ ~ ~ ~ ~ ~ ~ ~ ( '.).!.~.{.].0 a < ~ Y Z `  .( ~ ~ ~ ( -...>.,.^ ~ ~ ~ ~ ~ ~ ~ ~ ~ ~ ~ ~ { ] ",
"~ ~ ~ ~ ~ ~ ~ ~ ~ ~ ~ < j N O ^./., , , , < ~ ~ ~ < (._.:.<.[.}.|._ ~ < Y Z `  .( ~ ~ ~ ( -...>.,.^ ~ ~ ~ ~ ~ ~ ~ ~ ~ ~ ~ ~ { ] ",
"~ ~ ~ ~ ~ ~ ~ ~ ~ ~ ~ < j N 1.o 2.} } } } 3.5 ^ ~ ~ ^ 4.5.6.7.L s < ~ < Y Z `  .( ~ ~ ~ ( -...>.,.^ ~ ~ ~ ~ ~ ~ ~ ~ ~ ~ ~ ~ { ] ",
"~ ~ ~ ~ ~ ~ ~ ~ ~ ~ ~ < j 8.9.& 7.0.0.0.#.G j / ~ ~ ^ 4.a.b.u c.w ~ ~ < Y Z `  .( ~ ~ ~ ( -...>.,.^ ~ ~ ~ ~ ~ ~ ~ ~ ~ ~ ~ ~ { ] ",
"~ ~ ~ ~ ~ ~ ~ ~ ~ ~ ~ < j N d.~.e.e e e f.a ( ~ ~ < [ 8 g.h.:.i.j.~ ~ < Y Z `  .( ~ ~ ~ ( -...>.,.^ ~ ~ ~ ~ ~ ~ ~ ~ ~ ~ ~ ~ { ] ",
"~ ~ ~ ~ ~ ~ ~ ~ ~ ~ ~ < j N O ^.k.< < < ' < ~ ~ ~ ( 3.l.K m.n.].o.%.< < Y Z `  .( ~ ~ ~ ( -...>.,.^ ~ ~ ~ ~ ~ ~ ~ ~ ~ ~ ~ ~ { ] ",
"~ ~ ~ ~ ~ ~ ~ ~ ~ ~ ~ < j N O +.' ~ ~ ~ ~ ~ ~ ~ < p.k ` _.q.r.s.t.u./ < Y Z `  .( ~ ~ ~ ( -...>.,.^ ~ ~ ~ ~ ~ ~ ~ ~ ~ ~ ~ ~ { ] ",
"~ ~ ~ ~ ~ ~ ~ ~ ~ ~ ~ < j N O +.k.< < < < < ~ ~ M v.:.w.e x.%.$.C y.z.~ w Z `  .( ~ ~ ~ ( -...>.,.^ ~ ~ ~ ~ ~ ~ ~ ~ ~ ~ ~ ~ { ] ",
"~ ~ ~ ~ ~ ~ ~ ~ ~ ~ ~ < j N A.B.(.[ [ [ [ (.w b C.D.E.F.( ~ ~ G.i.H.I.b Y Z `  .( ~ ~ ~ ( -...>.,.^ ~ ~ ~ ~ ~ ~ ~ ~ ~ ~ ~ ~ { ] ",
"~ ~ ~ ~ ~ ~ ~ ~ ~ ~ ~ < G.J.K.L.M.N.N.N.O.P.P Q.R.S._.T ~ ~ ~ b T.U.V.W.(.Z V >.( ~ ~ ~ ( X 0.X.,.^ ~ ~ ~ ~ ~ ~ ~ ~ ~ ~ ~ ~ { ] ",
"~ ~ ~ ~ ~ ~ ~ ~ ~ ~ ~ ~ 5 X P B.Y.Y.Y.Y.v.+.F.4.Z.=.a ^ ~ ~ ~ ^ `.u.U f.b |. +T.^ ~ ~ ~ ^ %.} 3.(.~ ~ ~ ~ ~ ~ ~ ~ ~ ~ ~ ~ ~ { ] ",
"~ ~ ~ ~ ~ ~ ~ ~ ~ ~ ~ ~ ~ < < < < < < < < < < ~ < < ~ ~ ~ ~ ~ ~ ~ < < < ~ < < < ~ ~ ~ ~ ~ ~ < < ~ ~ ~ ~ ~ ~ ~ ~ ~ ~ ~ ~ ~ ~ { ] ",
"~ ~ ~ ~ ~ ~ ~ ~ ~ ~ ~ ~ ~ ~ ~ ~ ~ ~ ~ ~ ~ ~ ~ ~ ~ ~ ~ ~ ~ ~ ~ ~ ~ ~ ~ ~ ~ ~ ~ ~ ~ ~ ~ ~ ~ ~ ~ ~ ~ ~ ~ ~ ~ ~ ~ ~ ~ ~ ~ ~ ~ ~ { ] ",
"~ ~ ~ ~ ~ ~ ~ ~ ~ ~ ~ ~ ~ ~ ~ ~ ~ ~ ~ ~ ~ ~ ~ ~ ~ ~ ~ ~ ~ ~ ~ ~ ~ ~ ~ ~ ~ ~ ~ ~ ~ ~ ~ ~ ~ ~ ~ ~ ~ ~ ~ ~ ~ ~ ~ ~ ~ ~ ~ ~ ~ ~ { ] ",
"~ ~ ~ ~ ~ ~ ~ ~ ~ ~ ~ ~ ~ ~ ~ ~ ~ ~ ~ ~ ~ ~ ~ ~ ~ ~ ~ ~ ~ ~ ~ ~ ~ ~ ~ ~ ~ ~ ~ ~ ~ ~ ~ ~ ~ ~ ~ ~ ~ ~ ~ ~ ~ ~ ~ ~ ~ ~ ~ ~ ~ ~ { ] ",
"~ ~ ~ ~ ~ ~ ~ ~ ~ ~ ~ ~ ~ ~ ~ ~ ~ ~ ~ ~ ~ ~ ~ ~ ~ ~ ~ ~ ~ ~ ~ ~ ~ ~ ~ ~ ~ ~ ~ ~ ~ ~ ~ ~ ~ ~ ~ ~ ~ ~ ~ ~ ~ ~ ~ ~ ~ ~ ~ ~ ~ ~ { ] ",
"< < < < < < < < < < < < < < < < < < < < < < < < < < < < < < < < < < < < < < < < < < < < < < < < < < < < < < < < < < < < < < .+++",
"A A A A A A A A A A A A A A A A A A A A A A A A A A A A A A A A A A A A A A A A A A A A A A A A A A A A A A A A A A A A A @+#+$+",
"%+%+%+%+%+%+%+%+%+%+%+%+%+%+%+%+%+%+%+%+%+%+%+%+%+%+%+%+%+%+%+%+%+%+%+%+%+%+%+%+%+%+%+%+%+%+%+%+%+%+%+%+%+%+%+%+%+%+%+%+%+%+&+*+",
"+ + + + + + + + + + + + + + + + + + + + + + + + + + + + + + + + + + + + + + + + + + + + + + + + + + + + + + + + + + + + + + + =+",
"+ + + + + + + + + + + + + + + + + + + + + + + + + + + + + + + + + + + + + + + + + + + + + + + + + + + + + + + + + + + + + + @ # ",
"+ + + + + + + + + + + + + + + + + + + + + + + + + + + + + + + + + + + + + + + + + + + + + + + + + + + + + + + + + + + + + + @ # ",
"+ + + + + + + + + + + + + + + + + + + + + + + + + + + + + + + + + + + + + + + + + + + + + + + + + + + + + + + + + + + + + + @ # ",
"+ + + + + + + + + + + + + + + + + + + + + + + + + + + + + + + + + + + + + + + + + + + + + + + + + + + + + + + + + + + + + + @ # ",
"+ + + + + + + + + + + + + + + + + + + + + + + + + + + + + + + + + + + + + + + + + + + + + + + + + + + + + + + + + + + + + + @ # ",
"+ + + + + + + + + + + + + + + + + + + + + + + + + + + + + + + + + + + + + + + + + + + + + + + + + + + + + + + + + + + + + + @ # ",
"+ + + + + + + + + + + + + + + + + + + + + + + + + + + + + + + + + + + + + + + + + + + + + + + + + + + + + + + + + + + + + + @ # ",
"+ + + + + + + + + + + + + + + + + + + + + + + + + + + + + + + + + + + + + + + + + + + + + + + + + + + + + + + + + + + + + + @ # ",
"+ + + + + + + + + + + + + + + + + + + + + + + + + + + + + + + + + + + + + + + + + + + + + + + + + + + + + + + + + + + + + + @ # ",
"+ + + + + + + + + + + + + + + + + + + + + + + + + + + + + + + + + + + + + + + + + + + + + + + + + + + + + + + + + + + + + + @ # ",
"+ + + + + + + + + + + + + + + + + + + + + + + + + + + + + + + + + + + + + + + + + + + + + + + + + + + + + + + + + + + + + + @ # ",
"+ + + + + + + + + + + + + + + + + + + + + + + + + + + + + + + + + + + + + + + + + + + + + + + + + + + + + + + + + + + + + + @ # ",
"+ + + + + + + + + + + + + + + + + + + + + + + + + + + + + + + + + + + + + + + + + + + + + + + + + + + + + + + + + + + + + + @ # ",
"+ + + + + + + + + + + + + + + + + + + + + + + + + + + + + + + + + + + + + + + + + + + + + + + + + + + + + + + + + + + + + + @ # ",
"+ + + + + + + + + + + + + + + + + + + + + + + + + + + + + + + + + + + + + + + + + + + + + + + + + + + + + + + + + + + + + + @ # ",
"+ + + + + + + + + + + + + + + + + + + + + + + + + + + + + + + + + + + + + + + + + + + + + + + + + + + + + + + + + + + + + + @ # "};
