/* XPM */
static char * pacmanUp_xpm[] = {
"64 64 2 1",
" 	c None",
".	c #FFFF00",
"                                                                ",
"                                                                ",
"                                                                ",
"                                                                ",
"                                                                ",
"                                                                ",
"                                                                ",
"                                                                ",
"                                                                ",
"             ........                      ........             ",
"             ........                      ........             ",
"             ........                      ........             ",
"             ........                      ........             ",
"         ............                      ............         ",
"         ............                      ............         ",
"         ............                      ............         ",
"         ............                      ............         ",
"         .................            .................         ",
"         .................            .................         ",
"         .................            .................         ",
"         .................            .................         ",
"     .....................            .....................     ",
"    ......................            ......................    ",
"    ......................            ......................    ",
"    ......................            ......................    ",
"    ......................            ......................    ",
"    ......................            ......................    ",
"    ......................            ......................    ",
"    ......................            ......................    ",
"    ......................            ......................    ",
"    ..........................    ..........................    ",
"    ..........................    ..........................    ",
"    ..........................    ..........................    ",
"    ..........................    ..........................    ",
"    ..........................    ..........................    ",
"    ..........................    ..........................    ",
"    ..........................    ..........................    ",
"    ..........................    ..........................    ",
"    ..........................    ..........................    ",
"    ..........................    ..........................    ",
"    ..........................    ..........................    ",
"    ..........................    ..........................    ",
"     .........................    .........................     ",
"         ..............................................         ",
"         ..............................................         ",
"         ..............................................         ",
"         ..............................................         ",
"         ..............................................         ",
"         ..............................................         ",
"         ..............................................         ",
"         ..............................................         ",
"             ......................................             ",
"             ......................................             ",
"             ......................................             ",
"             ......................................             ",
"                     ......................                     ",
"                     ......................                     ",
"                     ......................                     ",
"                     ......................                     ",
"                      ....................                      ",
"                                                                ",
"                                                                ",
"                                                                ",
"                                                                "};
