/* XPM */
static char * button_xpm[] = {
"50 50 21 1",
" 	c None",
".	c #EEEEEE",
"+	c #EFEFEF",
"@	c #EDEDED",
"#	c #F0F0F0",
"$	c #F1F1F1",
"%	c #F4F4F4",
"&	c #F6F6F6",
"*	c #F9F9F9",
"=	c #FAFAFA",
"-	c #FBFBFB",
";	c #F8F8F8",
">	c #F3F3F3",
",	c #EBEBEB",
"'	c #F7F7F7",
")	c #FCFCFC",
"!	c #FEFEFE",
"~	c #FDFDFD",
"{	c #F2F2F2",
"]	c #F5F5F5",
"^	c #ECECEC",
"                       ...+                       ",
"                  @@.+#$$$$$#.@@                  ",
"               @@+%&*==----=*;&>$..               ",
"             .,#')!~~~~~~~))---=*&{@+             ",
"           .+#;-~~~~~~))))----===**&$@@           ",
"          ..%-)~~~~)))))----====***;'%#.          ",
"         @#;)~~~))))))-----===****;;''&$.@        ",
"        @#*~~~))))))----=====***;;;;''&]$@#       ",
"       .#*)))-------=====*****;;;;''&&&]%$+@      ",
"      @#;--------=======****;;;;''''&&]]%>$@      ",
"     @$;-----=========******;;;'''&&&]]]%>{+@     ",
"    @@&=--=========******;;;;;'''&&&]]%%>>>$@@    ",
"    @{*===************;;;;;;''''&&&]]%%%>{{$#@.   ",
"   ..&****************;;;;;;'''&&]]]%%>>{{{$#+@   ",
"   ^>;**********;;;;;;;;;;''''&&&]]]%%>>{$$$#+^+  ",
"  ^+&;;;;;;;;;;;;;;;;;;;;;'''&&&]]]%%>>>{$$#+.@,  ",
"  ^{';;;;;;;;;;;;;;;;;;;''''&&&&]]]%>>>{$$##+.^,  ",
"  @]'''''''''';;;;;;;;;'''''&&&&]]%%>>{{$$##..^^. ",
" .#&'''''''''''''';;;;''''''&&&&]]%%>>{{$##+..@,^ ",
" @$]&&&&&''''''''''';;''''''&&&&]%%%>{{{$##+.@^,^@",
" .{]]]&&&&&&&''''''''''''''&&]]%%%>>>{{$##+.@@^,,@",
" .{%]]]]]&&&&&&''''''''''&&]]]%%%>>>{{{$#++.@@^,,^",
"..{%%]]]]]&&&&&'''''''''&&&]]]%%%>>>{{{$#++.@@^^^@",
"..{>%%%]]]]]&&&&''''';''&&&]]]]%%>>>{{{$#++.@@^^^.",
"..${>>%%%]]]&&&&'''';'''&&&&&&]]]%%>>{{$##++.@@^@.",
"+@.${>>%%%]]]&&&'''';'''''''&&&&]]%%>>{{$##+..@@^@",
"+.@.#{>>%%]]]&&&'''';'''''''''&&]]]%>>{{$##+..@@^@",
".@@@+#{>%%%]]&&&'''';;;;;;;;'''&&]]]%>>{$$##+..@@.",
" .@@.+#${>%%]&&&'';;;;;*****;;;''&&]%%>>{$$#++.@@.",
" ..@++##{>>%]]&&'';;;********;;;''&&]%%>{{$#++...+",
" #..++#${{>%]]&&'';;****====**;;''&&]]%%{{$$#+...+",
" ++.+##${{>%]]&&';;;**=======***;''&]]%%>{{$#++...",
" +.++#$${>%%]&&';;**===========*;;;'&]]%>>{$##+.+ ",
"  ++##$$>>%%]&'';**=====---=====*;;'&&]]>>{{##++. ",
"  ++##${>>%]&&'';**===------====**;;&&]]%>{{$#+.  ",
"  ###$${>%%]&'';**===--------===**;;'&&]%>>{$##+  ",
"   #$$${>%]]&';;*===----)))----===*;''&]%%>{$$#   ",
"   #${${>%]]'';;====---)))))----==**''&&%%>{$$#   ",
"    $$${%%]&'';*===---))))))----==**;'&&%%>>{$    ",
"     #{{%%]&';;*===--))))))))---===*;'&&]%>{$$    ",
"     +{>%]]&';;*==--))))~~~~))--===*;''&]%>>$     ",
"      ${%%]&';**==--)))~~~~~))--===*;''&]%>$      ",
"       $%]]&';**==--)))~~~~~)))--===;;'&]%>       ",
"        {>]&';**==--))~~!!~~)))--===;;'&%>        ",
"         $%&;;**==--))~~!!~~)))--===;'']$         ",
"           %'';*==--)))~~~~~)))--===*&%$          ",
"            {%'=*=--)))~~~~~))--==;;]>            ",
"              {];*==))))~~~~))--*;&%              ",
"                $>&;==-)))))-=;']{                ",
"                  +]]&';;;;'&&%>                  "};
