/* XPM */
static char * button30_xpm[] = {
"30 30 21 1",
" 	c None",
".	c #EFEFEF",
"+	c #F0F0F0",
"@	c #EEEEEE",
"#	c #F6F6F6",
"$	c #F9F9F9",
"%	c #FAFAFA",
"&	c #F8F8F8",
"*	c #F5F5F5",
"=	c #F2F2F2",
"-	c #FDFDFD",
";	c #FCFCFC",
">	c #FBFBFB",
",	c #F7F7F7",
"'	c #F4F4F4",
")	c #F3F3F3",
"!	c #EDEDED",
"~	c #F1F1F1",
"{	c #ECECEC",
"]	c #EBEBEB",
"^	c #FEFEFE",
"             ...+             ",
"         @+#$%%%$&*=.         ",
"       .=$---;;;>>%%,=@       ",
"      +,;--;;;>>>%%$$&*+      ",
"     +%-;;;;>>%%%$$&&&,*+.    ",
"    +$>>>>%%%%%$$&&,,,#*'+    ",
"   .&>>>%%%%%$$$$&,,##**)=@   ",
"  !'%%$$$$$$$&&&&,,##*'')=+!  ",
"  +&$$$$$$&&&&&&,,##**')=~+@  ",
" {'&&&&&&&&&&&&,,##**'))~~.@] ",
" @#,,,,,&&&&&&,,,##*'')=~+.!{ ",
" ~###,,,,,,,&,,,,##*''==~+@!]!",
"@=**####,,,,,,,,#*''))=~+.!!]{",
"@='***###,,,,,##**''))=~+.!!{!",
"@~)''**###,,&,####**')=~+.@!{@",
"@@~)''**##,,&,,,,##**')=~+@@!!",
"@!@~)''*##,,&&&&&,,#**)=~+.@!@",
"@@@.+)'*##,&&$$$$&&,#*')=~..@@",
" @.+~=)*##,&$$%%%$&,,#*'=~+.@@",
" @.+~)'*#,&$%%%%%%%&&,*')=++@.",
" .++=)'#,,$%%>>>>%%$&,#*)=~+@ ",
"  +~='*#,&$%>>>>>>%$$&#*')~++ ",
"  ~=='*,&$%%>>;;;>>%$&,#')~~  ",
"   ~='*,&$%>>;;;;>>%%$,#')=~  ",
"   +)'*,&$%>;;---;>%%$,#*)=   ",
"    ='*,$$%>;;---;;>%$&#*)    ",
"     =*&$$%>;-^^-;;>%$,#=     ",
"       #,%%>;;---;>>%$*=      ",
"        =#$%;;---;>$,'        ",
"           *,&$$$&*'          "};
