/* XPM */
static char * fullexit50_xpm[] = {
"50 50 60 1",
" 	c #040404",
".	c #000000",
"+	c #050505",
"@	c #35E03A",
"#	c #3DE142",
"$	c #239F26",
"%	c #28B32D",
"&	c #197C1C",
"*	c #126214",
"=	c #34DD39",
"-	c #2AB82E",
";	c #011201",
">	c #2EC632",
",	c #053206",
"'	c #34DB39",
")	c #2FCA33",
"!	c #31D336",
"~	c #063707",
"{	c #23A027",
"]	c #32D537",
"^	c #073D09",
"/	c #229C25",
"(	c #30D035",
"_	c #2BBB2F",
":	c #28B12C",
"<	c #011702",
"[	c #197E1C",
"}	c #116114",
"|	c #187A1B",
"1	c #126314",
"2	c #27AE2B",
"3	c #021C02",
"4	c #24A428",
"5	c #35DF3A",
"6	c #146B17",
"7	c #26AA2A",
"8	c #042A04",
"9	c #146A16",
"0	c #136816",
"a	c #34DE39",
"b	c #30CE35",
"c	c #032704",
"d	c #26AC2A",
"e	c #31D136",
"f	c #053005",
"g	c #24A528",
"h	c #136916",
"i	c #17761A",
"j	c #27AD2B",
"k	c #022003",
"l	c #30CD34",
"m	c #23A127",
"n	c #167319",
"o	c #35DE3A",
"p	c #23A227",
"q	c #2FC933",
"r	c #29B42D",
"s	c #31D135",
"t	c #042D05",
"u	c #25A729",
" ................................................+",
".................................................+",
".................................................+",
".................................................+",
".................................................+",
".................................................+",
".................................................+",
".................................................+",
".................................................+",
".................................................+",
".................................................+",
"@@@@@@@@@@@@@@@@@@@@@@@@@@@@@@@@@@@@@@@@@@@@@@@@@#",
"@@@@@@@@@@@@@@@@@@@@@@@@@@@@@@@@@@@@@@@@@@@@@@@@@#",
"@@@@@@@@@@@@@@@@@@@@@@@@@@@@@@@@@@@@@@@@@@@@@@@@@#",
"@@@@@@@@@@@@@@@@@@@@@@@@@@@@@@@@@@@@@@@@@@@@@@@@@#",
"@@@@@@@@@@@@@@@@@@@@@@@@@@@@@@@@@@@@@@@@@@@@@@@@@#",
"@@@@@@@@@@@@@@@@@@@@@@@@@@@@@@@@@@@@@@@@@@@@@@@@@#",
"@@@@@@@@@@@@@@@@@@@@@@@@@@@@@@@@@@@@@@@@@@@@@@@@@#",
"@@@@@@@@@@@@@@@@@@@@@@@@@@@@@@@@@@@@@@@@@@@@@@@@@#",
"@@@@@@@@@@$......%@&*=@@@-;>@$,'.........)@@@@@@@#",
"@@@@@@@@@@$,@@@@@@@!~{@@]^/@@$,@@@@(._@@@@@@@@@@@#",
"@@@@@@@@@@$,@@@@@@@@:<)@[}=@@$,@@@@(._@@@@@@@@@@@#",
"@@@@@@@@@@$,@@@@@@@@@|123)@@@$,@@@@(._@@@@@@@@@@@#",
"@@@@@@@@@@$,@@@@@@@@@!,.4@@@@$,@@@@(._@@@@@@@@@@@#",
"@@@@@@@@@@$......(@@@56.)@@@@$,@@@@(._@@@@@@@@@@@#",
"@@@@@@@@@@$,@@@@@@@@@7890a@@@$,@@@@(._@@@@@@@@@@@#",
"@@@@@@@@@@$,@@@@@@@@bcdefg@@@$,@@@@(._@@@@@@@@@@@#",
"@@@@@@@@@@$,@@@@@@@ahi5@jkl@@$,@@@@(._@@@@@@@@@@@#",
"@@@@@@@@@@$,@@@@@@@m~!@@5n6o@$,@@@@(._@@@@@@@@@@@#",
"@@@@@@@@@@$......pq<r@@@@stu@$,@@@@(._@@@@@@@@@@@#",
"@@@@@@@@@@@@@@@@@@@@@@@@@@@@@@@@@@@@@@@@@@@@@@@@@#",
"@@@@@@@@@@@@@@@@@@@@@@@@@@@@@@@@@@@@@@@@@@@@@@@@@#",
"@@@@@@@@@@@@@@@@@@@@@@@@@@@@@@@@@@@@@@@@@@@@@@@@@#",
"@@@@@@@@@@@@@@@@@@@@@@@@@@@@@@@@@@@@@@@@@@@@@@@@@#",
"@@@@@@@@@@@@@@@@@@@@@@@@@@@@@@@@@@@@@@@@@@@@@@@@@#",
"@@@@@@@@@@@@@@@@@@@@@@@@@@@@@@@@@@@@@@@@@@@@@@@@@#",
".................................................+",
".................................................+",
".................................................+",
".................................................+",
".................................................+",
".................................................+",
".................................................+",
".................................................+",
".................................................+",
".................................................+",
".................................................+",
".................................................+",
".................................................+",
".................................................+"};
