/* XPM */
static char * pacmanLeft_xpm[] = {
"50 50 2 1",
" 	c None",
".	c #FFFF00",
"                                                  ",
"                                                  ",
"                                                  ",
"                 ................                 ",
"                 ................                 ",
"                 ................                 ",
"                ..................                ",
"          ..............................          ",
"          ..............................          ",
"          ..............................          ",
"       ....................................       ",
"       ....................................       ",
"       ....................................       ",
"       ....................................       ",
"       ....................................       ",
"       ....................................       ",
"       .....................................      ",
"             ..................................   ",
"             ..................................   ",
"             ..................................   ",
"                       ........................   ",
"                       ........................   ",
"                       ........................   ",
"                                 ..............   ",
"                                 ..............   ",
"                                 ..............   ",
"                                 ..............   ",
"                       ........................   ",
"                       ........................   ",
"                       ........................   ",
"             ..................................   ",
"             ..................................   ",
"             ..................................   ",
"       .....................................      ",
"       ....................................       ",
"       ....................................       ",
"       ....................................       ",
"       ....................................       ",
"       ....................................       ",
"       ....................................       ",
"          ..............................          ",
"          ..............................          ",
"          ..............................          ",
"                ..................                ",
"                 ................                 ",
"                 ................                 ",
"                 ................                 ",
"                                                  ",
"                                                  ",
"                                                  "};
