/* XPM */
static char * pacmanUp_xpm[] = {
"50 50 2 1",
" 	c None",
".	c #FFFF00",
"                                                  ",
"                                                  ",
"                                                  ",
"                                                  ",
"                                                  ",
"                                                  ",
"                                                  ",
"          .......                .......          ",
"          .......                .......          ",
"          .......                .......          ",
"       ..........                ..........       ",
"       ..........                ..........       ",
"       ..........                ..........       ",
"       .............          .............       ",
"       .............          .............       ",
"       .............          .............       ",
"      ..............          ..............      ",
"   .................          .................   ",
"   .................          .................   ",
"   .................          .................   ",
"   .................          .................   ",
"   .................          .................   ",
"   .................          .................   ",
"   ....................    ....................   ",
"   ....................    ....................   ",
"   ....................    ....................   ",
"   ....................    ....................   ",
"   ....................    ....................   ",
"   ....................    ....................   ",
"   ....................    ....................   ",
"   ....................    ....................   ",
"   ....................    ....................   ",
"   ....................    ....................   ",
"      ......................................      ",
"       ....................................       ",
"       ....................................       ",
"       ....................................       ",
"       ....................................       ",
"       ....................................       ",
"       ....................................       ",
"          ..............................          ",
"          ..............................          ",
"          ..............................          ",
"                ..................                ",
"                 ................                 ",
"                 ................                 ",
"                 ................                 ",
"                                                  ",
"                                                  ",
"                                                  "};
