/* XPM */
static char * pacmanDown_xpm[] = {
"50 50 2 1",
" 	c None",
".	c #FFFF00",
"                                                  ",
"                                                  ",
"                                                  ",
"                 ................                 ",
"                 ................                 ",
"                 ................                 ",
"                ..................                ",
"          ..............................          ",
"          ..............................          ",
"          ..............................          ",
"       ....................................       ",
"       ....................................       ",
"       ....................................       ",
"       ....................................       ",
"       ....................................       ",
"       ....................................       ",
"      ......................................      ",
"   ....................    ....................   ",
"   ....................    ....................   ",
"   ....................    ....................   ",
"   ....................    ....................   ",
"   ....................    ....................   ",
"   ....................    ....................   ",
"   ....................    ....................   ",
"   ....................    ....................   ",
"   ....................    ....................   ",
"   ....................    ....................   ",
"   .................          .................   ",
"   .................          .................   ",
"   .................          .................   ",
"   .................          .................   ",
"   .................          .................   ",
"   .................          .................   ",
"      ..............          ..............      ",
"       .............          .............       ",
"       .............          .............       ",
"       .............          .............       ",
"       ..........                ..........       ",
"       ..........                ..........       ",
"       ..........                ..........       ",
"          .......                .......          ",
"          .......                .......          ",
"          .......                .......          ",
"                                                  ",
"                                                  ",
"                                                  ",
"                                                  ",
"                                                  ",
"                                                  ",
"                                                  "};
