/* XPM */
static char * red_xpm[] = {
"50 50 26 1",
" 	c None",
".	c #FF0000",
"+	c #F67F7F",
"@	c #F58888",
"#	c #FF0707",
"$	c #F87171",
"%	c #EABABA",
"&	c #DFDFDF",
"*	c #DFDEDE",
"=	c #FF1212",
"-	c #FF1C1C",
";	c #E0DDDD",
">	c #8A8ADF",
",	c #ADADDF",
"'	c #FE0712",
")	c #8C8ADE",
"!	c #1B1BDF",
"~	c #FE0012",
"{	c #261BDE",
"]	c #1F1BDF",
"^	c #2E1BDD",
"/	c #2421DF",
"(	c #2323DF",
"_	c #8B8BDF",
":	c #EAB9BA",
"<	c #DEDEDF",
"                                                  ",
"                                                  ",
"                  ..............                  ",
"                  ..............                  ",
"                  ..............                  ",
"            ..........................            ",
"            ..........................            ",
"            ..........................            ",
"         ................................         ",
"        ..................................        ",
"        ..................................        ",
"        +@@@@@@#............$@@@@@@#......        ",
"     ...%&&&&&*=............%&&&&&*=.........     ",
"     ...%&&&&&*=............%&&&&&*=.........     ",
"     ===%&&&&&*-==#......===%&&&&&*-==#......     ",
"     ***&&&&&&&***@.....=;**&&&&&&&***@......     ",
"     &&&&&&&&&&&&&@.....=*&&&&&&&&&&&&@......     ",
"     &&&&&&&&&&&&&@.....=*&&&&&&&&&&&&@......     ",
"     >>>>>>,&&&&&&@.....')>>>>>,&&&&&&@......     ",
"     !!!!!!>&&&&&&@.....~{!!!!!>&&&&&&@......     ",
"     !!!!!!>&&&&&&@.....~{!!!!!>&&&&&&@......     ",
"     ]!!!!!>&&&&&&@.....~{!!!!!>&&&&&&@......     ",
"  ..~{!!!!!>&&&&&&@.....~{!!!!!>&&&&&&@.........  ",
"  ..~{!!!!!>&&&&&&@.....~{!!!!!>&&&&&&@.........  ",
"  ..~^{{/((_&&&***@.....~^{{/((_&&&***@.........  ",
"  ...~~~:<<<&&*-==#......~~~:<<<&&*-==#.........  ",
"  ......%&&&&&*=............%&&&&&*=............  ",
"  ......%&&&&&*=............%&&&&&*=............  ",
"  ......$@@@@@@#............$@@@@@@#............  ",
"  ..............................................  ",
"  ..............................................  ",
"  ..............................................  ",
"  ..............................................  ",
"  ..............................................  ",
"  ..............................................  ",
"  ..............................................  ",
"  ..............................................  ",
"  ..............................................  ",
"  ..............................................  ",
"  ..............................................  ",
"  ..............................................  ",
"  ..............................................  ",
"  ......    ..........      ..........    ......  ",
"  ......    ..........      ..........    ......  ",
"  ......    ..........      ..........    ......  ",
"  ...          .......      .......          ...  ",
"  ...          .......      .......          ...  ",
"  ...          .......      .......          ...  ",
"                                                  ",
"                                                  "};
