/* XPM */
static char * wall100_xpm[] = {
"100 100 18 1",
" 	c #363636",
".	c #383838",
"+	c #383837",
"@	c #383836",
"#	c #40255E",
"$	c #44116F",
"%	c #412064",
"&	c #383936",
"*	c #412163",
"=	c #460075",
"-	c #431A69",
";	c #460076",
">	c #43196A",
",	c #3D2E51",
"'	c #3F265D",
")	c #3E2C55",
"!	c #313131",
"~	c #343434",
" ...................................................................................................",
" ...................................................................................................",
" ..++++++++++++++++++++++++++++++++++++++++++++++++++++++++++++++++++++++++++++++++++++++++++++++...",
" .@#$$$$$$$$$$$$$$$$$$$$$$$$$$$$$$$$$$$$$$$$$$$$$$$$$$$$$$$$$$$$$$$$$$$$$$$$$$$$$$$$$$$$$$$$$$$$%@..",
" .&*============================================================================================-&..",
" .&*============================================================================================-&..",
" .&*============================================================================================-&..",
" .&*============================================================================================-&..",
" .&*============================================================================================-&..",
" .&*============================================================================================-&..",
" .&*============================================================================================-&..",
" .&*============================================================================================-&..",
" .&*============================================================================================-&..",
" .&*============================================================================================-&..",
" .&*============================================================================================-&..",
" .&*============================================================================================-&..",
" .&*============================================================================================-&..",
" .&*============================================================================================-&..",
" .&*============================================================================================-&..",
" .&*============================================================================================-&..",
" .&*============================================================================================-&..",
" .&*============================================================================================-&..",
" .&*============================================================================================-&..",
" .&*============================================================================================-&..",
" .&*============================================================================================-&..",
" .&*============================================================================================-&..",
" .&*============================================================================================-&..",
" .&*============================================================================================-&..",
" .&*============================================================================================-&..",
" .&*============================================================================================-&..",
" .&*============================================================================================-&..",
" .&*============================================================================================-&..",
" .&*============================================================================================-&..",
" .&*============================================================================================-&..",
" .&*============================================================================================-&..",
" .&*============================================================================================-&..",
" .&*============================================================================================-&..",
" .&*============================================================================================-&..",
" .&*============================================================================================-&..",
" .&*============================================================================================-&..",
" .&*============================================================================================-&..",
" .&*============================================================================================-&..",
" .&*============================================================================================-&..",
" .&*============================================================================================-&..",
" .&*============================================================================================-&..",
" .&*============================================================================================-&..",
" .&*============================================================================================-&..",
" .&*============================================================================================-&..",
" .&*============================================================================================-&..",
" .&*============================================================================================-&..",
" .&*============================================================================================-&..",
" .&*============================================================================================-&..",
" .&*============================================================================================-&..",
" .&*============================================================================================-&..",
" .&*============================================================================================-&..",
" .&*============================================================================================-&..",
" .&*============================================================================================-&..",
" .&*============================================================================================-&..",
" .&*============================================================================================-&..",
" .&*============================================================================================-&..",
" .&*============================================================================================-&..",
" .&*============================================================================================-&..",
" .&*============================================================================================-&..",
" .&*============================================================================================-&..",
" .&*============================================================================================-&..",
" .&*============================================================================================-&..",
" .&*============================================================================================-&..",
" .&*============================================================================================-&..",
" .&*============================================================================================-&..",
" .&*============================================================================================-&..",
" .&*============================================================================================-&..",
" .&*============================================================================================-&..",
" .&*============================================================================================-&..",
" .&*============================================================================================-&..",
" .&*============================================================================================-&..",
" .&*============================================================================================-&..",
" .&*============================================================================================-&..",
" .&*============================================================================================-&..",
" .&*============================================================================================-&..",
" .&*============================================================================================-&..",
" .&*============================================================================================-&..",
" .&*============================================================================================-&..",
" .&*============================================================================================-&..",
" .&*============================================================================================-&..",
" .&*============================================================================================-&..",
" .&*============================================================================================-&..",
" .&*============================================================================================-&..",
" .&*============================================================================================-&..",
" .&*============================================================================================-&..",
" .&*============================================================================================-&..",
" .&*============================================================================================-&..",
" .&*============================================================================================-&..",
" .&*============================================================================================-&..",
" .&*============================================================================================-&..",
" .&*============================================================================================-&..",
" .&*;;;;;;;;;;;;;;;;;;;;;;;;;;;;;;;;;;;;;;;;;;;;;;;;;;;;;;;;;;;;;;;;;;;;;;;;;;;;;;;;;;;;;;;;;;;;>&..",
" .+,'''''''''''''''''''''''''''''''''''''''''''''''''''''''''''''''''''''''''''''''''''''''''''')+..",
" ..++++++++++++++++++++++++++++++++++++++++++++++++++++++++++++++++++++++++++++++++++++++++++++++...",
" ...................................................................................................",
"!~~~~~~~~~~~~~~~~~~~~~~~~~~~~~~~~~~~~~~~~~~~~~~~~~~~~~~~~~~~~~~~~~~~~~~~~~~~~~~~~~~~~~~~~~~~~~~~~~~~"};
